<?xml version="1.0" encoding="UTF-8" standalone="no"?><!-- Generator: Gravit.io --><svg xmlns="http://www.w3.org/2000/svg" xmlns:xlink="http://www.w3.org/1999/xlink" style="isolation:isolate" viewBox="40.654 160.677 330.793 80.085" width="330.793pt" height="80.085pt"><path d=" M 360.297 205.725 C 360.389 205.704 360.463 205.634 360.463 205.536 L 360.463 205.291 C 361.042 205.245 362.065 205.034 362.6 204.918 C 363.489 204.815 364.456 204.684 365.318 204.559 L 365.318 205.381 L 365.395 205.381 L 365.395 205.536 C 365.395 205.634 365.469 205.704 365.561 205.725 L 360.297 205.725 Z  M 360.296 216.489 L 355.51 216.489 L 355.51 209.888 L 360.296 209.888 L 360.296 216.489 Z  M 355.145 205.536 L 355.145 205.381 L 355.222 205.381 L 355.222 204.551 C 356.051 204.671 356.983 204.797 357.851 204.899 C 358.346 205.009 359.441 205.241 360.052 205.291 L 360.052 205.536 C 360.052 205.634 360.126 205.704 360.218 205.725 L 354.979 205.725 C 355.071 205.704 355.145 205.634 355.145 205.536 Z  M 353.914 216.489 L 349.128 216.489 L 349.128 209.888 L 353.914 209.888 L 353.914 216.489 Z  M 343.769 205.725 C 343.861 205.704 343.935 205.634 343.935 205.536 L 343.935 205.291 C 344.514 205.245 345.537 205.034 346.072 204.918 C 346.961 204.815 347.928 204.684 348.79 204.559 L 348.79 205.381 L 348.867 205.381 L 348.867 205.536 C 348.867 205.634 348.941 205.704 349.033 205.725 L 343.769 205.725 Z  M 347.532 216.489 L 342.746 216.489 L 342.746 209.888 L 347.532 209.888 L 347.532 216.489 Z  M 341.151 216.489 L 336.364 216.489 L 336.364 209.888 L 341.151 209.888 L 341.151 216.489 Z  M 334.769 216.489 L 329.983 216.489 L 329.983 209.888 L 334.769 209.888 L 334.769 216.489 Z  M 327.557 205.536 L 327.557 205.291 C 328.137 205.245 329.159 205.034 329.694 204.918 C 330.583 204.815 331.55 204.684 332.412 204.559 L 332.412 205.381 L 332.49 205.381 L 332.49 205.536 C 332.49 205.634 332.564 205.704 332.656 205.725 L 327.391 205.725 C 327.483 205.704 327.557 205.634 327.557 205.536 Z  M 338.617 205.536 L 338.617 205.381 L 338.694 205.381 L 338.694 204.551 C 339.523 204.671 340.455 204.797 341.323 204.899 C 341.818 205.009 342.914 205.241 343.524 205.291 L 343.524 205.536 C 343.524 205.634 343.598 205.704 343.69 205.725 L 338.451 205.725 C 338.543 205.704 338.617 205.634 338.617 205.536 Z  M 322.073 205.725 C 322.165 205.704 322.239 205.634 322.239 205.536 L 322.239 205.381 L 322.317 205.381 L 322.317 204.551 C 323.145 204.671 324.077 204.797 324.946 204.899 C 325.44 205.009 326.536 205.241 327.146 205.291 L 327.146 205.536 C 327.146 205.634 327.22 205.704 327.312 205.725 L 322.073 205.725 Z  M 326.408 220.412 C 326.239 220.526 326.1 220.681 325.994 220.857 L 325.994 208.473 L 326.408 208.473 L 326.408 220.412 Z  M 324.399 215.77 L 322.405 215.77 L 322.405 210.186 L 324.399 210.186 L 324.399 215.77 Z  M 320.61 215.77 L 318.615 215.77 L 318.615 210.186 L 320.61 210.186 L 320.61 215.77 Z  M 316.82 215.77 L 314.826 215.77 L 314.826 210.186 L 316.82 210.186 L 316.82 215.77 Z  M 313.031 215.77 L 311.037 215.77 L 311.037 210.186 L 313.031 210.186 L 313.031 215.77 Z  M 309.242 215.77 L 307.248 215.77 L 307.248 210.186 L 309.242 210.186 L 309.242 215.77 Z  M 305.652 218.275 C 305.652 219.055 305.02 219.687 304.24 219.687 L 270.236 219.687 C 269.456 219.687 268.824 219.055 268.824 218.275 L 268.824 218.04 C 268.824 217.26 269.456 216.627 270.236 216.627 L 304.24 216.627 C 305.02 216.627 305.652 217.26 305.652 218.04 L 305.652 218.275 Z  M 266.395 218.158 C 265.869 218.158 265.443 217.732 265.443 217.206 C 265.443 216.681 265.869 216.255 266.395 216.255 C 266.92 216.255 267.346 216.681 267.346 217.206 C 267.346 217.732 266.92 218.158 266.395 218.158 Z  M 262.071 218.158 C 261.546 218.158 261.119 217.732 261.119 217.206 C 261.119 216.681 261.546 216.255 262.071 216.255 C 262.597 216.255 263.023 216.681 263.023 217.206 C 263.023 217.732 262.597 218.158 262.071 218.158 Z  M 257.747 218.158 C 257.222 218.158 256.796 217.732 256.796 217.206 C 256.796 216.681 257.222 216.255 257.747 216.255 C 258.273 216.255 258.699 216.681 258.699 217.206 C 258.699 217.732 258.273 218.158 257.747 218.158 Z  M 253.423 218.158 C 252.898 218.158 252.472 217.732 252.472 217.206 C 252.472 216.681 252.898 216.255 253.423 216.255 C 253.949 216.255 254.375 216.681 254.375 217.206 C 254.375 217.732 253.949 218.158 253.423 218.158 Z  M 249.1 218.158 C 248.574 218.158 248.148 217.732 248.148 217.206 C 248.148 216.681 248.574 216.255 249.1 216.255 C 249.625 216.255 250.051 216.681 250.051 217.206 C 250.051 217.732 249.625 218.158 249.1 218.158 Z  M 244.776 218.158 C 244.25 218.158 243.824 217.732 243.824 217.206 C 243.824 216.681 244.25 216.255 244.776 216.255 C 245.301 216.255 245.727 216.681 245.727 217.206 C 245.727 217.732 245.301 218.158 244.776 218.158 Z  M 240.452 218.158 C 239.926 218.158 239.5 217.732 239.5 217.206 C 239.5 216.681 239.926 216.255 240.452 216.255 C 240.978 216.255 241.404 216.681 241.404 217.206 C 241.404 217.732 240.978 218.158 240.452 218.158 Z  M 236.128 218.158 C 235.603 218.158 235.177 217.732 235.177 217.206 C 235.177 216.681 235.603 216.255 236.128 216.255 C 236.654 216.255 237.08 216.681 237.08 217.206 C 237.08 217.732 236.654 218.158 236.128 218.158 Z  M 231.804 218.158 C 231.279 218.158 230.853 217.732 230.853 217.206 C 230.853 216.681 231.279 216.255 231.804 216.255 C 232.33 216.255 232.756 216.681 232.756 217.206 C 232.756 217.732 232.33 218.158 231.804 218.158 Z  M 227.481 218.158 C 226.955 218.158 226.529 217.732 226.529 217.206 C 226.529 216.681 226.955 216.255 227.481 216.255 C 228.006 216.255 228.432 216.681 228.432 217.206 C 228.432 217.732 228.006 218.158 227.481 218.158 Z  M 223.157 218.158 C 222.631 218.158 222.205 217.732 222.205 217.206 C 222.205 216.681 222.631 216.255 223.157 216.255 C 223.682 216.255 224.108 216.681 224.108 217.206 C 224.108 217.732 223.682 218.158 223.157 218.158 Z  M 217.306 213.177 L 217.306 210.186 L 269.026 210.186 L 269.026 213.177 L 217.306 213.177 Z  M 209.917 205.725 C 210.124 205.711 210.29 205.543 210.29 205.332 C 210.29 205.284 210.278 205.239 210.262 205.197 L 211.526 204.827 C 212.114 204.841 212.732 204.856 213.358 204.87 L 213.201 204.944 C 213.118 204.944 213.05 205.012 213.05 205.095 C 213.05 205.178 213.118 205.246 213.201 205.246 L 217.547 205.246 C 217.541 205.275 217.53 205.301 217.53 205.332 C 217.53 205.543 217.695 205.711 217.903 205.725 L 209.917 205.725 Z  M 214.822 213.23 L 204.92 213.23 L 204.92 210.755 L 214.822 210.755 L 214.822 213.23 Z  M 213.279 218.117 C 212.754 218.117 212.328 217.691 212.328 217.166 C 212.328 216.64 212.754 216.214 213.279 216.214 C 213.805 216.214 214.231 216.64 214.231 217.166 C 214.231 217.691 213.805 218.117 213.279 218.117 Z  M 213.279 222.106 C 212.754 222.106 212.328 221.68 212.328 221.154 C 212.328 220.629 212.754 220.203 213.279 220.203 C 213.805 220.203 214.231 220.629 214.231 221.154 C 214.231 221.68 213.805 222.106 213.279 222.106 Z  M 208.956 218.117 C 208.43 218.117 208.004 217.691 208.004 217.166 C 208.004 216.64 208.43 216.214 208.956 216.214 C 209.481 216.214 209.907 216.64 209.907 217.166 C 209.907 217.691 209.481 218.117 208.956 218.117 Z  M 208.956 222.106 C 208.43 222.106 208.004 221.68 208.004 221.154 C 208.004 220.629 208.43 220.203 208.956 220.203 C 209.481 220.203 209.907 220.629 209.907 221.154 C 209.907 221.68 209.481 222.106 208.956 222.106 Z  M 204.632 218.117 C 204.106 218.117 203.68 217.691 203.68 217.166 C 203.68 216.64 204.106 216.214 204.632 216.214 C 205.157 216.214 205.583 216.64 205.583 217.166 C 205.583 217.691 205.157 218.117 204.632 218.117 Z  M 204.632 222.106 C 204.106 222.106 203.68 221.68 203.68 221.154 C 203.68 220.629 204.106 220.203 204.632 220.203 C 205.157 220.203 205.583 220.629 205.583 221.154 C 205.583 221.68 205.157 222.106 204.632 222.106 Z  M 200.308 218.117 C 199.782 218.117 199.356 217.691 199.356 217.166 C 199.356 216.64 199.782 216.214 200.308 216.214 C 200.833 216.214 201.26 216.64 201.26 217.166 C 201.26 217.691 200.833 218.117 200.308 218.117 Z  M 200.308 222.106 C 199.782 222.106 199.356 221.68 199.356 221.154 C 199.356 220.629 199.782 220.203 200.308 220.203 C 200.833 220.203 201.26 220.629 201.26 221.154 C 201.26 221.68 200.833 222.106 200.308 222.106 Z  M 195.984 218.117 C 195.459 218.117 195.033 217.691 195.033 217.166 C 195.033 216.64 195.459 216.214 195.984 216.214 C 196.51 216.214 196.936 216.64 196.936 217.166 C 196.936 217.691 196.51 218.117 195.984 218.117 Z  M 195.984 222.106 C 195.459 222.106 195.033 221.68 195.033 221.154 C 195.033 220.629 195.459 220.203 195.984 220.203 C 196.51 220.203 196.936 220.629 196.936 221.154 C 196.936 221.68 196.51 222.106 195.984 222.106 Z  M 194.194 210.755 L 204.095 210.755 L 204.095 213.23 L 194.194 213.23 L 194.194 210.755 Z  M 193.368 213.23 L 183.467 213.23 L 183.467 210.755 L 193.368 210.755 L 193.368 213.23 Z  M 191.66 218.117 C 191.135 218.117 190.709 217.691 190.709 217.166 C 190.709 216.64 191.135 216.214 191.66 216.214 C 192.186 216.214 192.612 216.64 192.612 217.166 C 192.612 217.691 192.186 218.117 191.66 218.117 Z  M 191.66 222.106 C 191.135 222.106 190.709 221.68 190.709 221.154 C 190.709 220.629 191.135 220.203 191.66 220.203 C 192.186 220.203 192.612 220.629 192.612 221.154 C 192.612 221.68 192.186 222.106 191.66 222.106 Z  M 187.337 218.117 C 186.811 218.117 186.385 217.691 186.385 217.166 C 186.385 216.64 186.811 216.214 187.337 216.214 C 187.862 216.214 188.288 216.64 188.288 217.166 C 188.288 217.691 187.862 218.117 187.337 218.117 Z  M 187.337 222.106 C 186.811 222.106 186.385 221.68 186.385 221.154 C 186.385 220.629 186.811 220.203 187.337 220.203 C 187.862 220.203 188.288 220.629 188.288 221.154 C 188.288 221.68 187.862 222.106 187.337 222.106 Z  M 183.013 218.117 C 182.487 218.117 182.061 217.691 182.061 217.166 C 182.061 216.64 182.487 216.214 183.013 216.214 C 183.538 216.214 183.964 216.64 183.964 217.166 C 183.964 217.691 183.538 218.117 183.013 218.117 Z  M 183.013 222.106 C 182.487 222.106 182.061 221.68 182.061 221.154 C 182.061 220.629 182.487 220.203 183.013 220.203 C 183.538 220.203 183.964 220.629 183.964 221.154 C 183.964 221.68 183.538 222.106 183.013 222.106 Z  M 178.689 218.117 C 178.163 218.117 177.737 217.691 177.737 217.166 C 177.737 216.64 178.163 216.214 178.689 216.214 C 179.215 216.214 179.641 216.64 179.641 217.166 C 179.641 217.691 179.215 218.117 178.689 218.117 Z  M 178.689 222.106 C 178.163 222.106 177.737 221.68 177.737 221.154 C 177.737 220.629 178.163 220.203 178.689 220.203 C 179.215 220.203 179.641 220.629 179.641 221.154 C 179.641 221.68 179.215 222.106 178.689 222.106 Z  M 174.365 218.117 C 173.84 218.117 173.414 217.691 173.414 217.166 C 173.414 216.64 173.84 216.214 174.365 216.214 C 174.891 216.214 175.317 216.64 175.317 217.166 C 175.317 217.691 174.891 218.117 174.365 218.117 Z  M 174.365 222.106 C 173.84 222.106 173.414 221.68 173.414 221.154 C 173.414 220.629 173.84 220.203 174.365 220.203 C 174.891 220.203 175.317 220.629 175.317 221.154 C 175.317 221.68 174.891 222.106 174.365 222.106 Z  M 172.74 210.755 L 182.642 210.755 L 182.642 213.23 L 172.74 213.23 L 172.74 210.755 Z  M 172.328 213.23 L 162.426 213.23 L 162.426 210.755 L 172.328 210.755 L 172.328 213.23 Z  M 170.041 218.117 C 169.516 218.117 169.09 217.691 169.09 217.166 C 169.09 216.64 169.516 216.214 170.041 216.214 C 170.567 216.214 170.993 216.64 170.993 217.166 C 170.993 217.691 170.567 218.117 170.041 218.117 Z  M 170.041 222.106 C 169.516 222.106 169.09 221.68 169.09 221.154 C 169.09 220.629 169.516 220.203 170.041 220.203 C 170.567 220.203 170.993 220.629 170.993 221.154 C 170.993 221.68 170.567 222.106 170.041 222.106 Z  M 166.551 219.714 C 166.551 220.753 165.709 221.595 164.67 221.595 L 82.094 221.595 C 81.055 221.595 80.213 220.753 80.213 219.714 L 80.213 219.4 C 80.213 218.361 81.055 217.519 82.094 217.519 L 164.67 217.519 C 165.709 217.519 166.551 218.361 166.551 219.4 L 166.551 219.714 Z  M 63.791 211.964 L 63.791 211.769 C 63.791 211.123 64.314 210.599 64.96 210.599 L 116.322 210.599 C 116.968 210.599 117.492 211.123 117.492 211.769 L 117.492 211.964 C 117.492 212.61 116.968 213.134 116.322 213.134 L 64.96 213.134 C 64.314 213.134 63.791 212.61 63.791 211.964 Z  M 64.028 205.7 C 64.065 205.715 64.106 205.722 64.149 205.725 L 63.907 205.725 C 63.949 205.722 63.99 205.715 64.028 205.7 Z  M 64.757 205.332 C 64.757 205.284 64.745 205.239 64.73 205.197 L 65.993 204.827 C 66.581 204.841 67.199 204.856 67.825 204.87 L 67.669 204.944 C 67.585 204.944 67.518 205.012 67.518 205.095 C 67.518 205.179 67.585 205.246 67.669 205.246 L 72.014 205.246 C 72.008 205.275 71.997 205.301 71.997 205.332 C 71.997 205.543 72.163 205.711 72.37 205.725 L 64.384 205.725 C 64.592 205.711 64.757 205.543 64.757 205.332 Z  M 72.727 205.7 C 72.764 205.715 72.806 205.722 72.848 205.725 L 72.606 205.725 C 72.648 205.722 72.689 205.715 72.727 205.7 Z  M 105.608 205.7 C 105.646 205.715 105.687 205.722 105.729 205.725 L 105.487 205.725 C 105.529 205.722 105.571 205.715 105.608 205.7 Z  M 106.338 205.332 C 106.338 205.284 106.326 205.239 106.311 205.197 L 107.574 204.827 C 108.162 204.841 108.78 204.856 109.406 204.87 L 109.249 204.944 C 109.166 204.944 109.098 205.012 109.098 205.095 C 109.098 205.179 109.166 205.246 109.249 205.246 L 113.595 205.246 C 113.589 205.275 113.578 205.301 113.578 205.332 C 113.578 205.543 113.743 205.711 113.951 205.725 L 105.965 205.725 C 106.172 205.711 106.338 205.543 106.338 205.332 Z  M 114.307 205.7 C 114.345 205.715 114.386 205.722 114.428 205.725 L 114.187 205.725 C 114.229 205.722 114.27 205.715 114.307 205.7 Z  M 126.399 205.7 C 126.436 205.715 126.478 205.722 126.52 205.725 L 126.278 205.725 C 126.32 205.722 126.361 205.715 126.399 205.7 Z  M 127.128 205.332 C 127.128 205.284 127.116 205.239 127.101 205.197 L 128.364 204.827 C 128.952 204.841 129.57 204.856 130.196 204.87 L 130.04 204.944 C 129.956 204.944 129.889 205.012 129.889 205.095 C 129.889 205.179 129.956 205.246 130.04 205.246 L 134.386 205.246 C 134.379 205.275 134.368 205.301 134.368 205.332 C 134.368 205.543 134.534 205.711 134.741 205.725 L 126.755 205.725 C 126.963 205.711 127.128 205.543 127.128 205.332 Z  M 135.098 205.7 C 135.135 205.715 135.177 205.722 135.219 205.725 L 134.977 205.725 C 135.019 205.722 135.06 205.715 135.098 205.7 Z  M 140.56 210.755 L 150.462 210.755 L 150.462 213.23 L 140.56 213.23 L 140.56 210.755 Z  M 151.7 210.755 L 161.601 210.755 L 161.601 213.23 L 151.7 213.23 L 151.7 210.755 Z  M 167.979 205.7 C 168.017 205.715 168.058 205.722 168.1 205.725 L 167.859 205.725 C 167.901 205.722 167.942 205.715 167.979 205.7 Z  M 168.709 205.332 C 168.709 205.284 168.697 205.239 168.682 205.197 L 169.945 204.827 C 170.533 204.841 171.151 204.856 171.777 204.87 L 171.621 204.944 C 171.537 204.944 171.469 205.012 171.469 205.095 C 171.469 205.179 171.537 205.246 171.621 205.246 L 175.966 205.246 C 175.96 205.275 175.949 205.301 175.949 205.332 C 175.949 205.543 176.114 205.711 176.322 205.725 L 168.336 205.725 C 168.544 205.711 168.709 205.543 168.709 205.332 Z  M 176.679 205.7 C 176.716 205.715 176.757 205.722 176.799 205.725 L 176.558 205.725 C 176.6 205.722 176.641 205.715 176.679 205.7 Z  M 188.77 205.7 C 188.807 205.715 188.849 205.722 188.891 205.725 L 188.649 205.725 C 188.691 205.722 188.732 205.715 188.77 205.7 Z  M 189.499 205.332 C 189.499 205.284 189.488 205.239 189.472 205.197 L 190.735 204.827 C 191.323 204.841 191.941 204.856 192.567 204.87 L 192.411 204.944 C 192.327 204.944 192.26 205.012 192.26 205.095 C 192.26 205.179 192.327 205.246 192.411 205.246 L 196.757 205.246 C 196.75 205.275 196.739 205.301 196.739 205.332 C 196.739 205.543 196.905 205.711 197.112 205.725 L 189.126 205.725 C 189.334 205.711 189.499 205.543 189.499 205.332 Z  M 197.469 205.7 C 197.506 205.715 197.548 205.722 197.59 205.725 L 197.348 205.725 C 197.39 205.722 197.431 205.715 197.469 205.7 Z  M 209.56 205.7 C 209.598 205.715 209.639 205.722 209.681 205.725 L 209.439 205.725 C 209.481 205.722 209.523 205.715 209.56 205.7 Z  M 218.259 205.7 C 218.297 205.715 218.338 205.722 218.38 205.725 L 218.138 205.725 C 218.18 205.722 218.222 205.715 218.259 205.7 Z  M 230.351 205.7 C 230.388 205.715 230.429 205.722 230.471 205.725 L 230.23 205.725 C 230.272 205.722 230.313 205.715 230.351 205.7 Z  M 231.08 205.332 C 231.08 205.284 231.068 205.239 231.053 205.197 L 232.316 204.827 C 232.904 204.841 233.522 204.856 234.148 204.87 L 233.992 204.944 C 233.908 204.944 233.841 205.012 233.841 205.095 C 233.841 205.178 233.908 205.246 233.992 205.246 L 238.337 205.246 C 238.331 205.275 238.32 205.301 238.32 205.332 C 238.32 205.543 238.486 205.711 238.693 205.725 L 230.707 205.725 C 230.915 205.711 231.08 205.543 231.08 205.332 Z  M 239.05 205.7 C 239.087 205.715 239.128 205.722 239.171 205.725 L 238.929 205.725 C 238.971 205.722 239.012 205.715 239.05 205.7 Z  M 269.288 211.158 L 305.141 211.158 L 305.141 212.354 L 269.288 212.354 L 269.288 211.158 Z  M 269.288 209.863 L 288.549 209.863 L 288.549 209.587 L 305.141 209.587 L 305.141 210.784 L 269.288 210.784 L 269.288 209.863 Z  M 371.354 222.381 C 371.411 222.127 371.447 221.865 371.447 221.593 L 371.447 208.473 C 371.404 208.449 371.365 208.434 371.324 208.413 C 370.923 206.869 369.527 205.725 367.857 205.725 L 365.64 205.725 C 365.732 205.704 365.806 205.634 365.806 205.536 L 365.806 204.97 C 365.806 204.857 365.714 204.765 365.601 204.765 C 365.561 204.765 365.53 204.788 365.498 204.808 L 365.498 204.533 C 366.814 204.341 367.836 204.174 367.836 204.174 C 367.892 204.174 367.938 204.128 367.938 204.071 C 367.938 204.026 367.906 203.994 367.865 203.981 L 367.865 203.031 L 367.695 203.031 L 367.395 203.969 L 362.542 203.969 C 362.131 203.423 361.46 203.035 360.67 202.935 C 360.529 202.072 360.387 201.67 360.267 201.67 C 360.147 201.67 360.005 202.072 359.864 202.935 C 359.074 203.035 358.403 203.423 357.992 203.969 L 353.309 203.969 L 353.009 203.031 L 352.839 203.031 L 352.839 203.969 L 352.756 203.969 C 352.699 203.969 352.653 204.015 352.653 204.071 C 352.653 204.128 352.699 204.174 352.756 204.174 C 352.756 204.174 353.751 204.336 355.042 204.525 L 355.042 204.808 C 355.011 204.788 354.98 204.765 354.94 204.765 C 354.826 204.765 354.734 204.857 354.734 204.97 L 354.734 205.536 C 354.734 205.634 354.808 205.704 354.9 205.725 L 349.112 205.725 C 349.204 205.704 349.278 205.634 349.278 205.536 L 349.278 204.97 C 349.278 204.857 349.186 204.765 349.073 204.765 C 349.033 204.765 349.002 204.788 348.97 204.808 L 348.97 204.533 C 350.286 204.341 351.308 204.174 351.308 204.174 C 351.365 204.174 351.411 204.128 351.411 204.071 C 351.411 204.026 351.378 203.994 351.337 203.981 L 351.337 203.031 L 351.167 203.031 L 350.867 203.969 L 346.014 203.969 C 345.603 203.423 344.933 203.035 344.142 202.935 C 344.002 202.072 343.859 201.67 343.739 201.67 C 343.619 201.67 343.477 202.072 343.336 202.935 C 342.546 203.035 341.875 203.423 341.464 203.969 L 336.781 203.969 L 336.481 203.031 L 336.311 203.031 L 336.311 203.969 L 336.228 203.969 C 336.171 203.969 336.125 204.015 336.125 204.071 C 336.125 204.128 336.171 204.174 336.228 204.174 C 336.228 204.174 337.224 204.336 338.515 204.525 L 338.515 204.808 C 338.483 204.788 338.452 204.765 338.412 204.765 C 338.298 204.765 338.206 204.857 338.206 204.97 L 338.206 205.536 C 338.206 205.634 338.28 205.704 338.372 205.725 L 332.734 205.725 C 332.826 205.704 332.901 205.634 332.901 205.536 L 332.901 204.97 C 332.901 204.857 332.809 204.765 332.695 204.765 C 332.655 204.765 332.624 204.788 332.592 204.808 L 332.592 204.533 C 333.908 204.341 334.93 204.174 334.93 204.174 C 334.987 204.174 335.033 204.128 335.033 204.071 C 335.033 204.026 335 203.994 334.959 203.981 L 334.959 203.031 L 334.789 203.031 L 334.489 203.969 L 329.637 203.969 C 329.225 203.423 328.555 203.035 327.765 202.935 C 327.624 202.072 327.482 201.67 327.361 201.67 C 327.241 201.67 327.099 202.072 326.958 202.935 C 326.168 203.035 325.497 203.423 325.086 203.969 L 320.403 203.969 L 320.103 203.031 L 319.933 203.031 L 319.933 203.969 L 319.85 203.969 C 319.794 203.969 319.748 204.015 319.748 204.071 C 319.748 204.128 319.794 204.174 319.85 204.174 C 319.85 204.174 320.846 204.336 322.137 204.525 L 322.137 204.808 C 322.105 204.788 322.074 204.765 322.034 204.765 C 321.92 204.765 321.828 204.857 321.828 204.97 L 321.828 205.536 C 321.828 205.634 321.903 205.704 321.995 205.725 L 287.951 205.725 L 287.951 200.093 L 264.701 200.093 L 264.701 193.917 L 256.404 193.917 L 256.404 194.28 L 252.048 194.28 L 252.048 194.734 L 256.404 194.734 L 256.404 195.292 L 251.173 195.292 L 251.173 196.541 L 256.404 200.754 L 256.404 205.725 L 239.406 205.725 C 239.614 205.711 239.779 205.543 239.779 205.332 C 239.779 205.301 239.768 205.275 239.762 205.246 L 243.022 205.246 C 243.106 205.246 243.174 205.178 243.174 205.095 C 243.174 205.012 243.106 204.944 243.022 204.944 C 243.022 204.944 242.911 204.91 242.731 204.856 C 244.389 204.782 246.339 204.695 246.339 204.695 C 246.348 204.653 246.342 204.603 246.313 204.548 C 246.462 204.393 246.627 204.135 246.744 203.868 L 247.768 201.422 C 247.794 201.362 247.801 201.31 247.791 201.273 L 247.733 201.387 L 247.753 201.343 C 247.804 201.226 247.782 201.139 247.709 201.139 L 246.793 201.139 C 246.72 201.139 246.583 201.226 246.48 201.343 L 244.56 203.516 C 243.94 203.516 239.924 203.019 239.487 202.952 C 237.431 202.637 234.742 202.245 232.685 202.643 C 232.345 202.709 232.022 202.773 231.71 202.836 C 231.615 202.855 231.522 202.874 231.431 202.893 C 231.194 202.941 230.968 202.989 230.75 203.036 C 230.667 203.054 230.581 203.073 230.502 203.091 C 230.228 203.152 229.969 203.213 229.729 203.274 C 229.677 203.287 229.631 203.301 229.581 203.314 C 229.395 203.363 229.22 203.413 229.058 203.463 C 228.991 203.484 228.926 203.504 228.863 203.525 C 228.712 203.575 228.574 203.626 228.447 203.678 C 228.41 203.693 228.366 203.708 228.331 203.724 C 228.198 203.782 228.08 203.841 227.98 203.902 L 227.993 203.902 C 227.711 204.075 227.548 204.26 227.548 204.47 C 227.548 204.47 227.584 204.471 227.611 204.472 C 227.571 204.544 227.548 204.618 227.548 204.695 C 227.548 204.695 228.306 204.719 229.474 204.752 L 229.725 205.069 C 229.662 205.139 229.621 205.23 229.621 205.332 C 229.621 205.543 229.786 205.711 229.994 205.725 L 218.616 205.725 C 218.823 205.711 218.989 205.543 218.989 205.332 C 218.989 205.301 218.978 205.275 218.972 205.246 L 222.232 205.246 C 222.316 205.246 222.383 205.178 222.383 205.095 C 222.383 205.012 222.316 204.944 222.232 204.944 C 222.232 204.944 222.12 204.91 221.941 204.856 C 223.599 204.782 225.549 204.695 225.549 204.695 C 225.558 204.653 225.551 204.603 225.523 204.548 C 225.671 204.393 225.837 204.135 225.954 203.868 L 226.977 201.422 C 227.004 201.362 227.011 201.31 227.001 201.273 L 226.943 201.387 L 226.962 201.343 C 227.013 201.226 226.992 201.139 226.918 201.139 L 226.003 201.139 C 225.929 201.139 225.792 201.226 225.689 201.343 L 223.77 203.516 C 223.149 203.516 219.133 203.019 218.697 202.952 C 216.64 202.637 213.952 202.245 211.895 202.643 C 211.554 202.709 211.232 202.773 210.919 202.836 C 210.824 202.855 210.732 202.874 210.64 202.893 C 210.404 202.941 210.178 202.989 209.96 203.036 C 209.877 203.054 209.791 203.073 209.711 203.091 C 209.438 203.152 209.179 203.213 208.939 203.274 C 208.887 203.287 208.841 203.301 208.79 203.314 C 208.604 203.364 208.43 203.413 208.267 203.463 C 208.2 203.484 208.136 203.504 208.073 203.525 C 207.922 203.575 207.784 203.626 207.657 203.678 C 207.619 203.693 207.576 203.708 207.54 203.724 C 207.408 203.782 207.289 203.841 207.189 203.902 L 207.202 203.902 C 206.92 204.075 206.758 204.26 206.758 204.47 C 206.758 204.47 206.793 204.471 206.821 204.472 C 206.78 204.544 206.758 204.618 206.758 204.695 C 206.758 204.695 207.515 204.719 208.683 204.752 L 208.935 205.069 C 208.872 205.139 208.831 205.23 208.831 205.332 C 208.831 205.543 208.996 205.711 209.204 205.725 L 197.826 205.725 C 198.033 205.711 198.198 205.543 198.198 205.332 C 198.198 205.301 198.188 205.275 198.181 205.246 L 201.442 205.246 C 201.525 205.246 201.593 205.178 201.593 205.095 C 201.593 205.012 201.525 204.944 201.442 204.944 C 201.442 204.944 201.33 204.91 201.151 204.856 C 202.809 204.782 204.758 204.695 204.758 204.695 C 204.768 204.653 204.761 204.603 204.733 204.548 C 204.881 204.393 205.046 204.135 205.164 203.868 L 206.187 201.422 C 206.214 201.362 206.22 201.31 206.211 201.273 L 206.152 201.388 L 206.172 201.343 C 206.223 201.226 206.202 201.139 206.128 201.139 L 205.213 201.139 C 205.139 201.139 205.002 201.226 204.899 201.343 L 202.979 203.516 C 202.359 203.516 198.343 203.019 197.907 202.952 C 195.85 202.637 193.162 202.245 191.104 202.643 C 190.764 202.709 190.442 202.773 190.129 202.836 C 190.034 202.855 189.942 202.874 189.85 202.893 C 189.614 202.941 189.387 202.989 189.17 203.036 C 189.087 203.054 189.001 203.073 188.921 203.091 C 188.648 203.152 188.388 203.213 188.149 203.274 C 188.096 203.287 188.05 203.301 187.999 203.315 C 187.814 203.364 187.639 203.413 187.477 203.463 C 187.41 203.484 187.345 203.504 187.282 203.525 C 187.131 203.575 186.993 203.626 186.867 203.678 C 186.829 203.693 186.785 203.708 186.75 203.724 C 186.618 203.782 186.499 203.841 186.399 203.902 L 186.412 203.902 C 186.13 204.075 185.968 204.26 185.968 204.47 C 185.968 204.47 186.003 204.471 186.03 204.472 C 185.99 204.544 185.968 204.618 185.968 204.695 C 185.968 204.695 186.725 204.719 187.893 204.752 L 188.144 205.069 C 188.081 205.139 188.04 205.23 188.04 205.332 C 188.04 205.543 188.206 205.711 188.413 205.725 L 177.035 205.725 C 177.243 205.711 177.408 205.543 177.408 205.332 C 177.408 205.301 177.397 205.275 177.391 205.246 L 180.651 205.246 C 180.735 205.246 180.802 205.179 180.802 205.095 C 180.802 205.012 180.735 204.944 180.651 204.944 C 180.651 204.944 180.539 204.91 180.36 204.856 C 182.018 204.782 183.968 204.695 183.968 204.695 C 183.977 204.653 183.971 204.603 183.942 204.548 C 184.09 204.393 184.256 204.135 184.373 203.868 L 185.397 201.422 C 185.423 201.362 185.43 201.31 185.42 201.273 L 185.362 201.387 L 185.381 201.343 C 185.433 201.226 185.411 201.139 185.338 201.139 L 184.422 201.139 C 184.349 201.139 184.212 201.226 184.109 201.343 L 182.189 203.516 C 181.569 203.516 177.553 203.019 177.116 202.952 C 175.059 202.637 172.371 202.245 170.314 202.643 C 169.973 202.709 169.651 202.773 169.338 202.836 C 169.244 202.855 169.151 202.874 169.059 202.893 C 168.823 202.941 168.597 202.989 168.379 203.036 C 168.297 203.054 168.21 203.073 168.131 203.091 C 167.857 203.152 167.598 203.213 167.358 203.274 C 167.306 203.287 167.26 203.301 167.209 203.314 C 167.023 203.364 166.849 203.413 166.686 203.463 C 166.62 203.484 166.555 203.504 166.492 203.525 C 166.341 203.575 166.203 203.626 166.077 203.677 C 166.039 203.693 165.995 203.708 165.959 203.724 C 165.827 203.782 165.708 203.841 165.609 203.902 L 165.622 203.902 C 165.34 204.075 165.177 204.26 165.177 204.47 C 165.177 204.47 165.212 204.471 165.24 204.472 C 165.2 204.544 165.177 204.618 165.177 204.695 C 165.177 204.695 165.935 204.719 167.102 204.752 L 167.354 205.069 C 167.291 205.139 167.25 205.23 167.25 205.332 C 167.25 205.543 167.415 205.711 167.623 205.725 L 135.454 205.725 C 135.662 205.711 135.827 205.543 135.827 205.332 C 135.827 205.301 135.816 205.275 135.81 205.246 L 139.071 205.246 C 139.154 205.246 139.222 205.179 139.222 205.095 C 139.222 205.012 139.154 204.944 139.071 204.944 C 139.071 204.944 138.959 204.91 138.779 204.856 C 140.437 204.782 142.387 204.695 142.387 204.695 C 142.397 204.653 142.39 204.603 142.361 204.548 C 142.51 204.393 142.675 204.135 142.793 203.868 L 143.816 201.422 C 143.842 201.362 143.849 201.31 143.839 201.273 L 143.781 201.387 L 143.801 201.343 C 143.852 201.226 143.831 201.139 143.757 201.139 L 142.842 201.139 C 142.768 201.139 142.631 201.226 142.528 201.343 L 140.608 203.516 C 139.988 203.516 135.972 203.019 135.536 202.952 C 133.479 202.637 130.791 202.245 128.733 202.643 C 128.393 202.709 128.07 202.773 127.758 202.836 C 127.663 202.855 127.571 202.874 127.479 202.893 C 127.243 202.941 127.016 202.989 126.798 203.036 C 126.715 203.054 126.63 203.073 126.55 203.091 C 126.276 203.152 126.017 203.213 125.777 203.274 C 125.725 203.287 125.68 203.301 125.629 203.314 C 125.443 203.363 125.268 203.413 125.106 203.463 C 125.039 203.484 124.974 203.504 124.911 203.525 C 124.76 203.575 124.622 203.626 124.496 203.678 C 124.458 203.693 124.414 203.708 124.379 203.724 C 124.247 203.782 124.128 203.841 124.028 203.902 L 124.041 203.902 C 123.759 204.075 123.597 204.26 123.597 204.47 C 123.597 204.47 123.632 204.471 123.659 204.472 C 123.619 204.544 123.597 204.618 123.597 204.695 C 123.597 204.695 124.354 204.719 125.522 204.752 L 125.773 205.069 C 125.71 205.139 125.669 205.23 125.669 205.332 C 125.669 205.543 125.835 205.711 126.042 205.725 L 114.664 205.725 C 114.872 205.711 115.037 205.543 115.037 205.332 C 115.037 205.301 115.026 205.275 115.02 205.246 L 118.28 205.246 C 118.364 205.246 118.431 205.179 118.431 205.095 C 118.431 205.012 118.364 204.944 118.28 204.944 C 118.28 204.944 118.168 204.91 117.989 204.856 C 119.647 204.782 121.597 204.695 121.597 204.695 C 121.606 204.653 121.599 204.603 121.571 204.548 C 121.719 204.393 121.885 204.135 122.002 203.868 L 123.026 201.422 C 123.052 201.362 123.059 201.31 123.049 201.273 L 122.991 201.387 L 123.01 201.343 C 123.061 201.226 123.04 201.139 122.967 201.139 L 122.051 201.139 C 121.978 201.139 121.84 201.226 121.738 201.343 L 119.818 203.516 C 119.198 203.516 115.182 203.019 114.745 202.952 C 112.688 202.637 110 202.245 107.943 202.643 C 107.602 202.709 107.28 202.773 106.967 202.836 C 106.873 202.855 106.78 202.874 106.688 202.893 C 106.452 202.941 106.226 202.989 106.008 203.036 C 105.925 203.054 105.839 203.073 105.759 203.091 C 105.486 203.152 105.227 203.213 104.987 203.274 C 104.935 203.287 104.889 203.301 104.838 203.314 C 104.652 203.364 104.478 203.413 104.315 203.463 C 104.249 203.484 104.184 203.504 104.121 203.525 C 103.97 203.575 103.832 203.626 103.705 203.678 C 103.667 203.693 103.624 203.708 103.588 203.724 C 103.456 203.782 103.337 203.841 103.238 203.902 L 103.251 203.902 C 102.969 204.075 102.806 204.26 102.806 204.47 C 102.806 204.47 102.841 204.471 102.869 204.472 C 102.829 204.544 102.806 204.618 102.806 204.695 C 102.806 204.695 103.564 204.719 104.731 204.752 L 104.983 205.069 C 104.92 205.139 104.879 205.23 104.879 205.332 C 104.879 205.543 105.044 205.711 105.252 205.725 L 73.083 205.725 C 73.291 205.711 73.456 205.543 73.456 205.332 C 73.456 205.301 73.445 205.275 73.439 205.246 L 76.7 205.246 C 76.783 205.246 76.851 205.179 76.851 205.095 C 76.851 205.012 76.783 204.944 76.7 204.944 C 76.7 204.944 76.588 204.91 76.408 204.856 C 78.066 204.782 80.016 204.695 80.016 204.695 C 80.026 204.653 80.019 204.603 79.99 204.548 C 80.139 204.393 80.304 204.135 80.421 203.868 L 81.445 201.422 C 81.471 201.362 81.478 201.31 81.468 201.273 L 81.41 201.387 L 81.43 201.343 C 81.481 201.226 81.459 201.139 81.386 201.139 L 80.471 201.139 C 80.397 201.139 80.26 201.226 80.157 201.343 L 78.237 203.516 C 77.617 203.516 73.601 203.019 73.165 202.952 C 71.108 202.637 68.42 202.245 66.362 202.643 C 66.022 202.709 65.699 202.773 65.387 202.836 C 65.292 202.855 65.2 202.874 65.107 202.893 C 64.871 202.941 64.645 202.989 64.427 203.036 C 64.345 203.054 64.259 203.073 64.179 203.091 C 63.905 203.152 63.646 203.213 63.406 203.274 C 63.354 203.287 63.309 203.301 63.258 203.314 C 63.072 203.363 62.897 203.413 62.734 203.463 C 62.668 203.484 62.603 203.504 62.54 203.525 C 62.389 203.575 62.251 203.626 62.124 203.678 C 62.087 203.693 62.043 203.708 62.008 203.724 C 61.876 203.782 61.757 203.841 61.657 203.902 L 61.67 203.902 C 61.388 204.075 61.225 204.26 61.225 204.47 C 61.225 204.47 61.261 204.471 61.288 204.472 C 61.248 204.544 61.225 204.618 61.225 204.695 C 61.225 204.695 61.983 204.719 63.151 204.752 L 63.402 205.069 C 63.339 205.139 63.298 205.23 63.298 205.332 C 63.298 205.543 63.463 205.711 63.671 205.725 L 40.966 205.725 C 40.738 205.725 40.491 206.965 40.818 208.292 C 40.55 208.918 40.455 211.138 41.796 212.583 C 43.721 214.655 45.669 214.519 50.874 219.118 C 54.99 222.756 53.538 225.113 55.401 225.177 C 54.935 225.458 54.621 225.964 54.621 226.547 C 54.621 227.433 55.34 228.152 56.226 228.152 L 369.822 228.151 C 370.708 228.151 371.426 227.433 371.426 226.547 C 371.426 225.66 370.708 224.942 369.822 224.942 L 217.251 224.942 C 216.672 224.622 216.275 224.012 216.275 223.304 L 216.275 222.99 C 216.275 221.951 217.117 221.109 218.156 221.109 L 325.878 221.109 C 325.825 221.258 325.787 221.414 325.787 221.582 L 325.787 221.817 C 325.787 222.597 326.419 223.229 327.199 223.229 L 361.203 223.229 C 361.983 223.229 362.615 222.597 362.615 221.817 L 362.615 221.582 C 362.615 221.415 362.581 221.257 362.528 221.109 L 369.583 221.109 C 370.407 221.109 371.1 221.643 371.354 222.381 Z  M 370.625 234.38 L 364.264 234.38 L 364.264 235.976 C 364.264 237.297 363.193 238.369 361.871 238.369 L 359.079 238.369 C 357.757 238.369 356.686 237.297 356.686 235.976 L 356.686 234.38 L 337.147 234.38 C 335.825 234.38 333.682 235.452 332.359 236.773 L 328.367 240.762 L 49.567 240.762 C 46.262 240.762 43.584 238.083 43.584 234.779 C 43.584 231.475 46.262 228.796 49.567 228.796 L 364.663 228.796 C 367.832 228.796 370.419 231.263 370.625 234.38 Z  M 286.632 177.18 L 288.957 177.18 L 287.009 179.169 L 286.588 179.169 L 286.462 177.11 C 286.51 177.149 286.566 177.18 286.632 177.18 Z  M 284.525 179.169 L 284.41 179.169 L 282.191 176.903 L 284.664 176.903 L 284.525 179.169 Z  M 284.139 176.57 L 284.684 176.57 L 284.671 176.792 L 281.872 176.792 L 284.309 179.28 L 284.518 179.28 L 284.089 186.276 L 253.203 186.276 L 253.203 186.936 L 252.048 186.936 L 252.048 188.072 L 253.203 188.072 L 253.203 188.626 L 256.404 188.626 L 256.404 189.132 L 252.048 189.132 L 252.048 189.51 L 252.048 189.586 L 252.048 190.646 L 256.404 190.646 L 256.404 191.706 L 252.048 191.706 L 252.048 192.085 L 252.048 192.16 L 252.048 193.22 L 256.404 193.22 L 256.404 193.469 L 265.299 193.469 L 265.299 199.644 L 288.549 199.644 L 288.549 193.669 L 291.892 192.181 L 291.892 191.725 L 289.332 191.725 L 291.892 190.585 L 291.892 190.13 L 289.332 190.13 L 291.892 188.99 L 291.892 188.534 L 288.181 188.534 L 288.181 188.539 L 287.163 188.539 L 286.595 179.28 L 287.11 179.28 L 289.167 177.18 L 289.424 177.18 C 289.575 177.18 289.698 177.058 289.698 176.906 C 289.698 176.755 289.575 176.632 289.424 176.632 L 286.632 176.632 C 286.556 176.632 286.487 176.663 286.438 176.713 L 286.429 176.57 L 286.632 176.57 C 286.88 176.57 287.081 176.369 287.081 176.121 C 287.081 175.873 286.88 175.672 286.632 175.672 L 285.76 175.672 L 285.76 173.491 C 285.76 173.243 285.559 173.042 285.311 173.042 C 285.063 173.042 284.862 173.243 284.862 173.491 L 284.862 175.672 L 284.139 175.672 C 283.891 175.672 283.69 175.873 283.69 176.121 C 283.69 176.369 283.891 176.57 284.139 176.57 Z  M 253.203 185.47 L 251.513 185.47 L 251.513 183.927 L 281.023 183.927 L 281.023 185.452 L 253.203 185.452 L 253.203 185.47 Z  M 276.902 175.135 L 282.677 175.135 L 278.227 178.469 L 277.308 178.469 L 276.902 175.135 Z  M 276.199 169.358 L 280.883 169.358 L 277.402 171.965 L 276.516 171.965 L 276.199 169.358 Z  M 275.315 162.099 L 273.635 162.099 L 273.591 162.463 L 273.406 162.463 C 273.207 162.463 273.045 162.302 273.045 162.102 L 273.045 161.218 C 273.045 161.018 273.207 160.857 273.406 160.857 L 276.693 160.857 C 276.893 160.857 277.054 161.018 277.054 161.218 L 277.054 162.102 C 277.054 162.302 276.893 162.463 276.693 162.463 L 275.359 162.463 L 275.315 162.099 Z  M 272.434 171.965 L 271.482 171.965 L 268.001 169.358 L 272.751 169.358 L 272.434 171.965 Z  M 271.642 178.469 L 270.658 178.469 L 266.207 175.135 L 272.048 175.135 L 271.642 178.469 Z  M 281.023 182.598 L 281.023 182.542 L 281.023 182.288 L 277.773 182.288 L 277.336 178.698 L 278.303 178.698 L 283.324 174.937 L 283.43 174.937 L 283.43 173.917 L 276.754 173.917 L 276.538 172.145 L 277.462 172.145 L 281.389 169.203 L 281.472 169.203 L 281.472 168.406 L 276.083 168.406 L 275.579 164.267 L 278.78 164.267 L 278.78 161.75 L 278.181 161.75 L 278.181 163.669 L 275.506 163.669 L 275.381 162.643 L 276.693 162.643 C 276.991 162.643 277.234 162.4 277.234 162.102 L 277.234 161.218 C 277.234 160.92 276.991 160.677 276.693 160.677 L 273.406 160.677 C 273.108 160.677 272.866 160.92 272.866 161.218 L 272.866 162.102 C 272.866 162.4 273.108 162.643 273.406 162.643 L 273.569 162.643 L 273.444 163.669 L 271.675 163.669 L 271.675 163.391 L 272.609 163.391 C 272.751 163.391 272.866 163.275 272.866 163.133 L 272.866 162.501 C 272.866 162.359 272.751 162.243 272.609 162.243 L 270.261 162.243 C 270.119 162.243 270.003 162.359 270.003 162.501 L 270.003 163.133 C 270.003 163.275 270.119 163.391 270.261 163.391 L 271.301 163.391 L 271.301 163.669 L 271.151 163.669 L 271.151 164.267 L 273.371 164.267 L 272.867 168.406 L 267.412 168.406 L 267.412 169.203 L 267.495 169.203 L 271.422 172.145 L 272.412 172.145 L 272.196 173.917 L 265.454 173.917 L 265.454 174.937 L 265.56 174.937 L 270.581 178.698 L 271.614 178.698 L 271.177 182.288 L 262.476 182.288 L 262.476 181.211 C 263.001 181.195 263.424 180.77 263.424 180.241 L 263.424 179.895 C 263.915 179.731 264.271 179.272 264.271 178.726 L 264.271 172.535 C 264.271 171.852 263.717 171.297 263.033 171.297 L 258.7 171.297 C 258.016 171.297 257.462 171.852 257.462 172.535 L 257.462 178.726 C 257.462 179.174 257.702 179.563 258.059 179.78 L 258.059 180.241 C 258.059 180.78 258.495 181.216 259.034 181.216 L 260.482 181.216 L 260.482 182.288 L 255.214 182.288 L 255.214 173.68 C 255.214 173.533 255.094 173.413 254.946 173.413 C 254.798 173.413 254.679 173.533 254.679 173.68 L 254.679 182.288 L 253.402 182.288 L 253.402 175.888 C 253.402 175.776 253.283 175.685 253.135 175.685 C 252.987 175.685 252.867 175.776 252.867 175.888 L 252.867 182.288 L 249.718 182.288 L 249.718 182.542 L 249.718 182.598 L 249.718 183.266 L 281.023 183.266 L 281.023 182.598 Z " fill="rgb(80,80,80)"/></svg>