<?xml version="1.0" encoding="UTF-8" standalone="no"?><!-- Generator: Gravit.io --><svg xmlns="http://www.w3.org/2000/svg" xmlns:xlink="http://www.w3.org/1999/xlink" style="isolation:isolate" viewBox="293.86 48.854 265.919 65.779" width="265.919pt" height="65.779pt"><path d=" M 540.548 94.001 L 533.269 94.001 C 532.596 94.001 531.938 93.974 531.293 93.93 L 531.293 93.012 L 540.548 93.012 L 540.548 94.001 Z  M 519.155 91.615 L 515.506 91.615 L 515.506 90.367 L 519.154 90.367 L 519.155 91.615 Z  M 513.64 91.615 L 509.992 91.615 L 509.992 90.367 L 513.64 90.367 L 513.64 91.615 Z  M 508.126 91.615 L 504.478 91.615 L 504.478 90.367 L 508.126 90.367 L 508.126 91.615 Z  M 502.612 91.615 L 498.964 91.615 L 498.964 90.367 L 502.612 90.367 L 502.612 91.615 Z  M 497.098 91.615 L 493.45 91.615 L 493.45 90.367 L 497.098 90.367 L 497.098 91.615 Z  M 493.242 72.417 L 482.504 72.417 L 482.504 69.805 L 483.955 69.805 L 483.955 67.551 L 486.277 67.551 L 486.277 69.805 L 493.242 69.805 L 493.242 72.417 Z  M 491.584 91.615 L 489.315 91.615 L 489.315 91.913 L 487.438 91.913 L 487.438 95.494 L 474.668 95.494 L 474.668 91.913 L 473.063 91.913 L 473.063 91.333 L 487.935 91.333 L 487.935 90.367 L 491.584 90.367 L 491.584 91.615 Z  M 470.896 74.159 L 477.28 74.159 L 477.28 75.32 L 470.896 75.32 L 470.896 74.159 Z  M 470.16 91.913 L 468.284 91.913 L 468.284 95.494 L 455.514 95.494 L 455.514 91.913 L 453.908 91.913 L 453.908 91.333 L 470.16 91.333 L 470.16 91.913 Z  M 452.322 76.19 L 465.381 76.19 L 465.381 77.351 L 452.322 77.351 L 452.322 76.19 Z  M 449.688 62.26 L 450.893 58.041 L 453.215 58.041 L 452.009 62.26 L 449.688 62.26 Z  M 450.268 67.271 L 447.946 67.271 L 449.152 63.053 L 451.473 63.053 L 450.268 67.271 Z  M 468.284 71.837 L 468.284 73.578 L 460.158 73.578 L 460.158 71.837 L 468.284 71.837 Z  M 458.126 64.146 C 458.126 63.906 458.321 63.711 458.561 63.711 L 479.747 63.711 C 479.988 63.711 480.182 63.906 480.182 64.146 L 480.182 69.515 C 480.182 69.756 479.988 69.951 479.747 69.951 L 458.561 69.951 C 458.321 69.951 458.126 69.756 458.126 69.515 L 458.126 64.146 Z  M 458.126 58.632 C 458.126 58.392 458.321 58.197 458.561 58.197 L 479.747 58.197 C 479.988 58.197 480.182 58.392 480.182 58.632 L 480.182 61.824 C 480.182 62.065 479.988 62.26 479.747 62.26 L 458.561 62.26 C 458.321 62.26 458.126 62.065 458.126 61.824 L 458.126 58.632 Z  M 482.214 63.421 L 486.277 63.421 L 486.277 66.613 L 482.214 66.613 L 482.214 63.421 Z  M 482.214 58.777 L 486.277 58.777 L 486.277 61.969 L 482.214 61.969 L 482.214 58.777 Z  M 441.874 72.417 L 423.881 72.417 L 423.881 71.547 L 441.874 71.547 L 441.874 72.417 Z  M 559.607 93.012 L 559.779 92.204 L 558.251 92.204 L 558.251 91.136 L 540.548 91.136 L 540.548 92.204 L 531.293 92.204 L 531.293 88.161 L 529.996 88.161 C 529.971 88.072 529.937 87.979 529.866 87.882 L 527.866 85.125 C 527.684 84.874 527.21 84.682 526.797 84.682 L 522.493 84.682 C 522.08 84.682 521.745 84.874 521.745 85.125 L 521.745 87.882 C 521.745 87.979 521.779 88.072 521.819 88.161 L 517.258 88.161 L 512.61 80.784 C 512.799 80.688 512.932 80.497 512.932 80.271 C 512.932 79.951 512.672 79.691 512.352 79.691 L 511.43 79.691 L 511.43 78.888 L 511.94 78.888 C 511.984 78.888 512.02 78.852 512.02 78.808 L 512.02 77.821 C 512.02 77.777 511.984 77.741 511.94 77.741 L 509.218 77.741 C 509.174 77.741 509.138 77.777 509.138 77.821 L 509.138 78.808 C 509.138 78.852 509.174 78.888 509.218 78.888 L 509.773 78.888 L 509.773 79.691 L 501.071 79.691 L 486.286 56.015 C 486.25 55.966 486.178 55.919 486.087 55.875 L 487.728 55.875 C 488.049 55.875 488.308 55.615 488.308 55.294 C 488.308 54.974 488.049 54.714 487.728 54.714 L 483.085 54.714 L 483.085 53.421 L 484.245 53.421 C 484.345 53.421 484.427 53.34 484.427 53.239 L 484.427 50.993 C 484.427 50.892 484.345 50.81 484.245 50.81 L 478.05 50.81 C 477.949 50.81 477.868 50.892 477.868 50.993 L 477.868 53.239 C 477.868 53.34 477.949 53.421 478.05 53.421 L 479.312 53.421 L 479.312 54.714 L 472.594 54.714 L 470.985 48.854 L 469.659 48.854 L 469.659 54.714 L 469.191 54.714 L 469.191 48.854 L 467.865 48.854 L 466.256 54.714 L 457.255 54.714 L 457.255 53.421 L 458.415 53.421 C 458.516 53.421 458.598 53.34 458.598 53.239 L 458.598 50.993 C 458.598 50.892 458.516 50.81 458.415 50.81 L 452.221 50.81 C 452.12 50.81 452.039 50.892 452.039 50.993 L 452.039 53.239 C 452.039 53.34 452.12 53.421 452.221 53.421 L 453.483 53.421 L 453.483 54.714 L 450.29 54.714 C 449.97 54.714 449.71 54.974 449.71 55.294 C 449.71 55.615 449.97 55.875 450.29 55.875 L 451.024 55.875 C 450.933 55.919 450.861 55.966 450.825 56.015 L 444.724 68.554 L 431.886 68.554 L 430.867 64.843 L 429.92 64.843 L 429.92 68.554 L 429.586 68.554 L 429.586 64.843 L 428.638 64.843 L 427.62 68.554 L 422.248 68.554 C 421.927 68.554 421.667 68.814 421.667 69.134 C 421.667 69.455 421.927 69.715 422.248 69.715 L 422.47 69.715 L 418.258 79.691 L 403.658 79.691 L 403.658 77.994 L 404.613 77.994 C 404.695 77.994 404.763 77.927 404.763 77.844 L 404.763 75.995 C 404.763 75.912 404.695 75.845 404.613 75.845 L 399.514 75.845 C 399.432 75.845 399.364 75.912 399.364 75.995 L 399.364 77.844 C 399.364 77.927 399.432 77.994 399.514 77.994 L 400.553 77.994 L 400.553 79.691 L 397.698 79.691 C 397.377 79.691 397.117 79.951 397.117 80.271 C 397.117 80.527 397.285 80.737 397.514 80.814 L 392.885 88.161 L 384.548 88.161 L 382.372 83.03 C 383.267 82.731 383.917 81.895 383.917 80.898 C 383.917 80.294 383.678 79.746 383.291 79.341 C 383.356 79.567 383.392 79.808 383.392 80.059 C 383.392 81.305 382.53 82.315 381.467 82.315 L 380.79 82.315 C 382.092 82.071 383.077 80.932 383.077 79.56 C 383.077 78.009 381.82 76.752 380.269 76.752 C 378.718 76.752 377.461 78.009 377.461 79.56 C 377.461 80.932 378.447 82.071 379.748 82.315 L 379.229 82.315 C 378.166 82.315 377.304 81.305 377.304 80.059 C 377.304 79.808 377.34 79.567 377.405 79.341 C 377.018 79.746 376.779 80.294 376.779 80.898 C 376.779 81.906 377.444 82.75 378.355 83.039 L 376.183 88.161 L 370.364 88.161 C 370.335 87.331 370.009 86.408 369.663 85.462 C 368.958 83.534 368.281 82.149 366.636 82.149 L 363.852 82.149 C 363.347 82.149 362.939 82.279 362.58 82.518 L 360.359 80.831 L 360.064 81.219 L 356.367 78.408 L 356.219 78.602 L 359.917 81.412 L 359.672 81.735 L 361.767 83.329 C 361.495 83.685 361.228 84.108 360.936 84.6 C 360.261 85.734 360.074 87.042 360.451 88.161 L 347.795 88.161 L 347.795 89.509 L 346.252 89.509 C 346.118 88.975 345.927 88.421 345.72 87.856 C 345.015 85.928 344.338 84.543 342.693 84.543 L 339.91 84.543 C 339.404 84.543 338.996 84.673 338.637 84.913 L 336.417 83.225 L 336.122 83.613 L 332.424 80.802 L 332.277 80.996 L 335.974 83.807 L 335.729 84.13 L 337.824 85.723 C 337.552 86.08 337.285 86.502 336.993 86.994 C 336.962 87.046 336.939 87.101 336.91 87.154 L 293.86 85.197 L 294.933 86.398 L 306.138 98.948 L 557.711 98.948 L 559.409 94.001 L 558.251 94.001 L 558.251 93.012 L 559.607 93.012 Z  M 535.396 105.133 L 535.396 107.063 L 509.802 107.063 C 518.668 106.377 527.744 105.686 535.396 105.133 Z  M 310.475 110.611 C 308.107 114.873 309.056 114.631 318.517 114.631 C 325.469 114.631 331.822 110.374 336.728 110.374 C 393.875 110.374 485.256 110.374 485.256 110.374 C 485.256 110.374 487.016 109.306 496.212 108.246 L 541.309 108.246 L 541.309 107.063 L 537.998 107.063 L 537.998 104.946 C 541.125 104.724 543.957 104.53 546.363 104.376 L 547.695 110.847 L 551.952 110.847 L 553.362 104.001 C 553.638 103.994 556.151 103.988 556.344 103.988 L 557.436 99.968 L 307.401 99.968 C 307.401 99.968 312.84 106.354 310.475 110.611 Z " fill="rgb(80,80,80)"/></svg>