<?xml version="1.0" encoding="UTF-8" standalone="no"?><!-- Generator: Gravit.io --><svg xmlns="http://www.w3.org/2000/svg" xmlns:xlink="http://www.w3.org/1999/xlink" style="isolation:isolate" viewBox="397.839 176.72 161.617 63.072" width="161.617pt" height="63.072pt"><g><path d=" M 459.798 226.681 L 459.748 226.681 L 459.748 229.164 L 459.798 229.164 L 459.798 226.681 Z " fill="rgb(80,80,80)"/><path d=" M 456.553 226.681 L 456.503 226.681 L 456.503 229.164 L 456.553 229.164 L 456.553 226.681 Z " fill="rgb(80,80,80)"/><path d=" M 558.904 233.978 C 558.373 234.656 557.462 235.078 556.361 235.078 L 473.874 235.078 C 449.707 235.078 428.839 232.23 413.525 226.842 C 412.441 226.46 411.893 225.767 411.693 225.062 C 411.468 224.986 411.239 224.911 411.012 224.835 C 407.743 225.687 405.326 228.65 405.326 232.186 C 405.326 236.387 408.731 239.792 412.931 239.792 L 442.229 239.792 L 462.618 239.792 L 555.603 239.792 C 557.731 239.792 559.456 238.066 559.456 235.938 C 559.456 235.219 559.246 234.554 558.904 233.978 Z " fill="rgb(80,80,80)"/><path d=" M 423.781 222.144 L 458.376 222.144 C 458.181 221.928 458.055 221.65 458.055 221.337 C 458.055 220.665 458.6 220.12 459.272 220.12 L 470.02 220.12 C 470.692 220.12 471.237 220.665 471.237 221.337 C 471.237 221.65 471.111 221.928 470.916 222.144 L 499.24 222.144 C 499.046 221.928 498.92 221.65 498.92 221.337 C 498.92 220.665 499.464 220.12 500.136 220.12 L 510.885 220.12 C 511.557 220.12 512.102 220.664 512.102 221.337 C 512.102 221.65 511.975 221.928 511.781 222.144 L 549.924 222.144 L 551.425 224.274 L 422.748 224.274 C 420.535 224.274 417.616 224.674 415.419 225.186 C 415.028 225.054 414.637 224.921 414.249 224.784 C 411.838 223.936 419.32 222.144 423.781 222.144 Z  M 468.398 192.944 L 471.241 192.944 L 471.241 195.378 L 468.398 195.378 L 468.398 192.944 Z  M 471.639 192.944 L 475.702 192.944 L 475.702 195.378 L 471.639 195.378 L 471.639 192.944 Z  M 476.101 192.944 L 481.381 192.944 L 481.381 195.378 L 476.101 195.378 L 476.101 192.944 Z  M 481.779 192.944 L 487.258 192.944 L 487.258 195.378 L 481.779 195.378 L 481.779 192.944 Z  M 489.018 196.4 L 496.737 196.4 L 496.737 197.172 L 489.018 197.172 L 489.018 196.4 Z  M 491.112 193.35 L 501.86 193.35 L 501.86 194.769 L 491.112 194.769 L 491.112 193.35 Z  M 482.359 199.564 L 482.359 198.157 L 486.123 198.157 L 486.123 199.564 L 482.359 199.564 Z  M 477.245 199.274 L 477.245 197.868 L 481.008 197.868 L 481.008 199.274 L 477.245 199.274 Z  M 491.923 212.717 L 491.923 218.599 C 491.923 219.439 491.242 220.12 490.402 220.12 L 479.451 220.12 C 478.611 220.12 477.929 219.439 477.929 218.599 L 477.93 212.717 C 477.93 211.877 478.611 211.196 479.451 211.196 L 490.402 211.196 C 491.242 211.196 491.923 211.877 491.923 212.717 Z  M 504.699 201.563 C 504.699 202.179 504.2 202.679 503.584 202.679 L 509.364 202.679 L 509.364 204.301 L 481.377 204.301 L 481.377 202.679 L 476.206 202.679 C 475.59 202.679 475.09 202.179 475.09 201.563 C 475.09 200.947 475.59 200.448 476.206 200.448 L 503.584 200.448 C 504.2 200.448 504.699 200.947 504.699 201.563 Z  M 548.094 230.254 L 545.863 230.254 L 545.863 225.59 L 548.094 225.59 L 548.094 230.254 Z  M 544.849 230.254 L 542.618 230.254 L 542.618 225.59 L 544.849 225.59 L 544.849 230.254 Z  M 460.889 230.255 L 458.658 230.255 L 458.658 225.59 L 460.889 225.59 L 460.889 230.255 Z  M 457.644 230.255 L 455.413 230.255 L 455.413 225.59 L 457.644 225.59 L 457.644 230.255 Z  M 413.887 225.813 C 429.086 231.16 449.829 233.987 473.874 233.987 L 556.361 233.987 C 557.512 233.987 558.316 233.377 558.316 232.503 L 558.316 232.157 L 550.49 221.053 L 549.924 221.053 L 549.924 214.895 C 549.924 213.983 549.38 213.224 548.708 213.224 L 548.099 213.224 L 548.099 203.287 L 549.215 203.287 C 550.055 203.287 550.736 202.606 550.736 201.766 L 550.736 200.346 C 550.736 199.506 550.055 198.825 549.215 198.825 L 546.071 198.825 L 546.071 192.234 C 546.071 191.394 545.446 190.661 544.663 190.595 L 537.978 190.033 C 537.078 189.958 536.337 190.641 536.337 191.561 L 536.337 209.328 C 536.337 210.248 537.078 210.916 537.978 210.823 L 544.652 210.127 L 544.652 213.224 L 532.737 213.224 L 532.737 209.422 L 532.433 209.422 L 532.433 213.224 L 529.391 213.224 L 529.391 209.726 L 529.086 209.726 L 529.086 213.224 L 528.326 213.224 L 528.326 210.182 L 526.501 210.182 L 526.501 213.224 L 523.56 213.224 L 523.56 212.515 C 523.56 211.675 522.879 210.994 522.039 210.994 L 513.974 210.994 L 513.368 207.118 L 512.788 202.638 C 512.763 202.447 512.685 202.272 512.586 202.108 L 511.168 193.034 C 511.156 192.958 511.112 192.892 511.087 192.819 L 509.647 183.604 C 509.62 183.432 509.554 183.27 509.464 183.12 C 509.827 183.002 510.095 182.672 510.095 182.269 C 510.095 181.769 509.689 181.363 509.189 181.363 L 501.543 181.363 C 502.223 180.908 502.672 180.134 502.672 179.255 C 502.672 177.855 501.537 176.72 500.136 176.72 C 498.736 176.72 497.601 177.855 497.601 179.255 C 497.601 180.134 498.05 180.908 498.73 181.363 L 496.277 181.363 C 495.776 181.363 495.371 181.769 495.371 182.269 C 495.371 182.769 495.776 183.175 496.277 183.175 L 496.823 183.175 C 496.787 183.263 496.738 183.347 496.728 183.442 L 495.863 191.727 L 468.606 191.727 C 467.807 191.727 467.159 192.311 467.159 193.034 L 467.159 201.259 L 462.821 201.259 C 461.981 201.259 461.22 201.874 461.121 202.638 L 461.041 203.258 C 460.629 202.874 460.17 202.68 459.576 202.798 L 457.699 203.17 C 457.364 203.236 457.124 203.397 456.916 203.601 L 455.168 202.747 L 455.021 203.048 L 452.152 201.647 L 452.078 201.797 L 454.947 203.199 L 454.825 203.449 L 456.46 204.248 C 456.322 204.527 456.193 204.837 456.06 205.212 C 455.83 205.861 455.799 206.542 455.973 207.14 L 453.695 207.14 C 452.855 207.14 452.174 207.821 452.174 208.661 L 452.174 213.224 L 446.951 213.224 L 446.951 206.228 L 446.647 206.228 L 446.647 213.224 L 444.67 213.224 C 444.483 213.224 444.111 213.238 443.605 213.263 L 443.605 209.726 L 443.301 209.726 L 443.301 213.278 C 442.352 213.326 441.002 213.405 439.346 213.509 L 439.346 210.943 L 439.042 210.943 L 439.042 213.528 C 437.978 213.594 436.807 213.67 435.544 213.752 L 435.544 211.095 L 433.719 211.095 L 433.719 213.873 C 433.271 213.902 432.812 213.933 432.35 213.964 L 432.35 210.03 L 432.045 210.03 L 432.045 213.984 C 429.686 214.143 427.157 214.316 424.592 214.494 L 424.592 212.768 L 416.055 212.768 L 416.055 215.096 C 415.391 215.144 414.74 215.19 414.097 215.237 L 414.097 212.768 L 413.793 212.768 L 413.793 215.259 C 413.278 215.296 412.77 215.333 412.272 215.369 L 412.272 210.639 L 411.968 210.639 L 411.968 215.391 C 411.399 215.433 410.845 215.473 410.305 215.513 L 410.305 213.659 L 406.634 213.659 L 406.634 215.787 C 403.311 216.038 401.088 216.22 400.865 216.266 C 392.351 218.052 403.574 221.152 412.702 224.251 C 412.664 224.579 412.698 225.395 413.887 225.813 Z " fill="rgb(80,80,80)"/></g></svg>