<?xml version="1.0" encoding="UTF-8" standalone="no"?><!-- Generator: Gravit.io --><svg xmlns="http://www.w3.org/2000/svg" xmlns:xlink="http://www.w3.org/1999/xlink" style="isolation:isolate" viewBox="40.221 312.374 229.261 44.603" width="229.261pt" height="44.603pt"><path d=" M 240.907 344.289 C 240.907 344.44 240.785 344.563 240.634 344.563 L 237.901 344.563 C 237.75 344.563 237.628 344.44 237.628 344.289 L 237.628 343.606 C 237.628 343.455 237.75 343.333 237.901 343.333 L 240.634 343.333 C 240.785 343.333 240.907 343.455 240.907 343.606 L 240.907 344.289 Z  M 237.099 344.289 C 237.099 344.44 236.977 344.563 236.826 344.563 L 234.093 344.563 C 233.942 344.563 233.819 344.44 233.819 344.289 L 233.819 343.606 C 233.819 343.455 233.942 343.333 234.093 343.333 L 236.826 343.333 C 236.977 343.333 237.099 343.455 237.099 343.606 L 237.099 344.289 Z  M 233.291 344.289 C 233.291 344.44 233.168 344.563 233.017 344.563 L 230.284 344.563 C 230.133 344.563 230.011 344.44 230.011 344.289 L 230.011 343.606 C 230.011 343.455 230.133 343.333 230.284 343.333 L 233.017 343.333 C 233.168 343.333 233.291 343.455 233.291 343.606 L 233.291 344.289 Z  M 229.482 344.289 C 229.482 344.44 229.36 344.563 229.209 344.563 L 226.476 344.563 C 226.325 344.563 226.203 344.44 226.203 344.289 L 226.203 343.606 C 226.203 343.455 226.325 343.333 226.476 343.333 L 229.209 343.333 C 229.36 343.333 229.482 343.455 229.482 343.606 L 229.482 344.289 Z  M 225.674 344.289 C 225.674 344.44 225.552 344.563 225.401 344.563 L 222.668 344.563 C 222.517 344.563 222.394 344.44 222.394 344.289 L 222.394 343.606 C 222.394 343.455 222.517 343.333 222.668 343.333 L 225.401 343.333 C 225.552 343.333 225.674 343.455 225.674 343.606 L 225.674 344.289 Z  M 221.866 344.289 C 221.866 344.44 221.743 344.563 221.592 344.563 L 218.859 344.563 C 218.708 344.563 218.586 344.44 218.586 344.289 L 218.586 343.606 C 218.586 343.455 218.708 343.333 218.859 343.333 L 221.592 343.333 C 221.743 343.333 221.866 343.455 221.866 343.606 L 221.866 344.289 Z  M 212.953 344.289 C 212.953 344.44 212.831 344.563 212.68 344.563 L 209.947 344.563 C 209.796 344.563 209.674 344.44 209.674 344.289 L 209.674 343.606 C 209.674 343.455 209.796 343.333 209.947 343.333 L 212.68 343.333 C 212.831 343.333 212.953 343.455 212.953 343.606 L 212.953 344.289 Z  M 209.145 344.289 C 209.145 344.44 209.023 344.563 208.872 344.563 L 206.139 344.563 C 205.988 344.563 205.865 344.44 205.865 344.289 L 205.865 343.606 C 205.865 343.455 205.988 343.333 206.139 343.333 L 208.872 343.333 C 209.023 343.333 209.145 343.455 209.145 343.606 L 209.145 344.289 Z  M 205.337 344.289 C 205.337 344.44 205.214 344.563 205.063 344.563 L 202.33 344.563 C 202.179 344.563 202.057 344.44 202.057 344.289 L 202.057 343.606 C 202.057 343.455 202.179 343.333 202.33 343.333 L 205.063 343.333 C 205.214 343.333 205.337 343.455 205.337 343.606 L 205.337 344.289 Z  M 201.849 334.106 L 201.849 333.9 C 201.849 333.677 202.03 333.497 202.252 333.497 L 203.74 333.497 C 203.962 333.497 204.143 333.677 204.143 333.9 L 204.143 334.106 C 204.143 334.329 203.962 334.509 203.74 334.509 L 202.252 334.509 C 202.03 334.509 201.849 334.329 201.849 334.106 Z  M 201.528 344.289 C 201.528 344.44 201.406 344.563 201.255 344.563 L 198.522 344.563 C 198.371 344.563 198.249 344.44 198.249 344.289 L 198.249 343.606 C 198.249 343.455 198.371 343.333 198.522 343.333 L 201.255 343.333 C 201.406 343.333 201.528 343.455 201.528 343.606 L 201.528 344.289 Z  M 197.72 344.289 C 197.72 344.44 197.598 344.563 197.447 344.563 L 194.714 344.563 C 194.563 344.563 194.44 344.44 194.44 344.289 L 194.44 343.606 C 194.44 343.455 194.563 343.333 194.714 343.333 L 197.447 343.333 C 197.598 343.333 197.72 343.455 197.72 343.606 L 197.72 344.289 Z  M 195.569 333.866 C 195.569 333.643 195.75 333.463 195.973 333.463 L 201.108 333.463 C 201.33 333.463 201.511 333.643 201.511 333.866 L 201.511 334.072 C 201.511 334.295 201.33 334.476 201.108 334.476 L 195.973 334.476 C 195.75 334.476 195.569 334.295 195.569 334.072 L 195.569 333.866 Z  M 193.912 344.289 C 193.912 344.44 193.789 344.563 193.638 344.563 L 190.905 344.563 C 190.754 344.563 190.632 344.44 190.632 344.289 L 190.632 343.606 C 190.632 343.455 190.754 343.333 190.905 343.333 L 193.638 343.333 C 193.789 343.333 193.912 343.455 193.912 343.606 L 193.912 344.289 Z  M 185.851 344.289 C 185.851 344.44 185.729 344.563 185.578 344.563 L 182.845 344.563 C 182.694 344.563 182.571 344.44 182.571 344.289 L 182.571 343.606 C 182.571 343.455 182.694 343.333 182.845 343.333 L 185.578 343.333 C 185.729 343.333 185.851 343.455 185.851 343.606 L 185.851 344.289 Z  M 182.043 344.289 C 182.043 344.44 181.92 344.563 181.769 344.563 L 179.036 344.563 C 178.885 344.563 178.763 344.44 178.763 344.289 L 178.763 343.606 C 178.763 343.455 178.885 343.333 179.036 343.333 L 181.769 343.333 C 181.92 343.333 182.043 343.455 182.043 343.606 L 182.043 344.289 Z  M 178.234 344.289 C 178.234 344.44 178.112 344.563 177.961 344.563 L 175.228 344.563 C 175.077 344.563 174.955 344.44 174.955 344.289 L 174.955 343.606 C 174.955 343.455 175.077 343.333 175.228 343.333 L 177.961 343.333 C 178.112 343.333 178.234 343.455 178.234 343.606 L 178.234 344.289 Z  M 174.426 344.289 C 174.426 344.44 174.304 344.563 174.153 344.563 L 171.42 344.563 C 171.269 344.563 171.146 344.44 171.146 344.289 L 171.146 343.606 C 171.146 343.455 171.269 343.333 171.42 343.333 L 174.153 343.333 C 174.304 343.333 174.426 343.455 174.426 343.606 L 174.426 344.289 Z  M 170.618 344.289 C 170.618 344.44 170.495 344.563 170.344 344.563 L 167.611 344.563 C 167.46 344.563 167.338 344.44 167.338 344.289 L 167.338 343.606 C 167.338 343.455 167.46 343.333 167.611 343.333 L 170.344 343.333 C 170.495 343.333 170.618 343.455 170.618 343.606 L 170.618 344.289 Z  M 166.809 344.289 C 166.809 344.44 166.687 344.563 166.536 344.563 L 163.803 344.563 C 163.652 344.563 163.53 344.44 163.53 344.289 L 163.53 343.606 C 163.53 343.455 163.652 343.333 163.803 343.333 L 166.536 343.333 C 166.687 343.333 166.809 343.455 166.809 343.606 L 166.809 344.289 Z  M 160.535 340.862 C 160.535 341.013 160.413 341.136 160.262 341.136 L 157.529 341.136 C 157.378 341.136 157.255 341.013 157.255 340.862 L 157.255 340.179 C 157.255 340.028 157.378 339.906 157.529 339.906 L 160.262 339.906 C 160.413 339.906 160.535 340.028 160.535 340.179 L 160.535 340.862 Z  M 157.359 344.289 C 157.359 344.44 157.237 344.563 157.086 344.563 L 154.353 344.563 C 154.202 344.563 154.08 344.44 154.08 344.289 L 154.08 343.606 C 154.08 343.455 154.202 343.333 154.353 343.333 L 157.086 343.333 C 157.237 343.333 157.359 343.455 157.359 343.606 L 157.359 344.289 Z  M 153.447 340.862 L 153.447 340.179 C 153.447 340.028 153.569 339.906 153.72 339.906 L 156.453 339.906 C 156.604 339.906 156.727 340.028 156.727 340.179 L 156.727 340.862 C 156.727 341.013 156.604 341.136 156.453 341.136 L 153.72 341.136 C 153.569 341.136 153.447 341.013 153.447 340.862 Z  M 153.551 344.289 C 153.551 344.44 153.429 344.563 153.278 344.563 L 150.545 344.563 C 150.394 344.563 150.271 344.44 150.271 344.289 L 150.271 343.606 C 150.271 343.455 150.394 343.333 150.545 343.333 L 153.278 343.333 C 153.429 343.333 153.551 343.455 153.551 343.606 L 153.551 344.289 Z  M 149.639 340.862 L 149.639 340.179 C 149.639 340.028 149.761 339.906 149.912 339.906 L 152.645 339.906 C 152.796 339.906 152.918 340.028 152.918 340.179 L 152.918 340.862 C 152.918 341.013 152.796 341.136 152.645 341.136 L 149.912 341.136 C 149.761 341.136 149.639 341.013 149.639 340.862 Z  M 149.743 344.289 C 149.743 344.44 149.62 344.563 149.469 344.563 L 146.736 344.563 C 146.585 344.563 146.463 344.44 146.463 344.289 L 146.463 343.606 C 146.463 343.455 146.585 343.333 146.736 343.333 L 149.469 343.333 C 149.62 343.333 149.743 343.455 149.743 343.606 L 149.743 344.289 Z  M 145.83 340.862 L 145.83 340.179 C 145.83 340.028 145.953 339.906 146.104 339.906 L 148.837 339.906 C 148.988 339.906 149.11 340.028 149.11 340.179 L 149.11 340.862 C 149.11 341.013 148.988 341.136 148.837 341.136 L 146.104 341.136 C 145.953 341.136 145.83 341.013 145.83 340.862 Z  M 145.934 344.289 C 145.934 344.44 145.812 344.563 145.661 344.563 L 142.928 344.563 C 142.777 344.563 142.655 344.44 142.655 344.289 L 142.655 343.606 C 142.655 343.455 142.777 343.333 142.928 343.333 L 145.661 343.333 C 145.812 343.333 145.934 343.455 145.934 343.606 L 145.934 344.289 Z  M 142.022 340.862 L 142.022 340.179 C 142.022 340.028 142.144 339.906 142.295 339.906 L 145.028 339.906 C 145.179 339.906 145.302 340.028 145.302 340.179 L 145.302 340.862 C 145.302 341.013 145.179 341.136 145.028 341.136 L 142.295 341.136 C 142.144 341.136 142.022 341.013 142.022 340.862 Z  M 142.126 344.289 C 142.126 344.44 142.004 344.563 141.853 344.563 L 139.12 344.563 C 138.969 344.563 138.846 344.44 138.846 344.289 L 138.846 343.606 C 138.846 343.455 138.969 343.333 139.12 343.333 L 141.853 343.333 C 142.004 343.333 142.126 343.455 142.126 343.606 L 142.126 344.289 Z  M 138.214 340.862 L 138.214 340.179 C 138.214 340.028 138.336 339.906 138.487 339.906 L 141.22 339.906 C 141.371 339.906 141.493 340.028 141.493 340.179 L 141.493 340.862 C 141.493 341.013 141.371 341.136 141.22 341.136 L 138.487 341.136 C 138.336 341.136 138.214 341.013 138.214 340.862 Z  M 138.318 344.289 C 138.318 344.44 138.195 344.563 138.044 344.563 L 135.311 344.563 C 135.16 344.563 135.038 344.44 135.038 344.289 L 135.038 343.606 C 135.038 343.455 135.16 343.333 135.311 343.333 L 138.044 343.333 C 138.195 343.333 138.318 343.455 138.318 343.606 L 138.318 344.289 Z  M 133.308 334.509 C 133.085 334.509 132.905 334.329 132.905 334.106 L 132.905 333.9 C 132.905 333.677 133.085 333.497 133.308 333.497 L 134.795 333.497 C 135.018 333.497 135.198 333.677 135.198 333.9 L 135.198 334.106 C 135.198 334.329 135.018 334.509 134.795 334.509 L 133.308 334.509 Z  M 132.566 334.072 C 132.566 334.295 132.386 334.476 132.163 334.476 L 127.028 334.476 C 126.805 334.476 126.625 334.295 126.625 334.072 L 126.625 333.866 C 126.625 333.643 126.805 333.463 127.028 333.463 L 132.163 333.463 C 132.386 333.463 132.566 333.643 132.566 333.866 L 132.566 334.072 Z  M 128.868 344.289 C 128.868 344.44 128.745 344.563 128.594 344.563 L 125.861 344.563 C 125.71 344.563 125.588 344.44 125.588 344.289 L 125.588 343.606 C 125.588 343.455 125.71 343.333 125.861 343.333 L 128.594 343.333 C 128.745 343.333 128.868 343.455 128.868 343.606 L 128.868 344.289 Z  M 125.06 344.289 C 125.06 344.44 124.937 344.563 124.786 344.563 L 122.053 344.563 C 121.902 344.563 121.78 344.44 121.78 344.289 L 121.78 343.606 C 121.78 343.455 121.902 343.333 122.053 343.333 L 124.786 343.333 C 124.937 343.333 125.06 343.455 125.06 343.606 L 125.06 344.289 Z  M 121.251 344.289 C 121.251 344.44 121.129 344.563 120.978 344.563 L 118.245 344.563 C 118.094 344.563 117.971 344.44 117.971 344.289 L 117.971 343.606 C 117.971 343.455 118.094 343.333 118.245 343.333 L 120.978 343.333 C 121.129 343.333 121.251 343.455 121.251 343.606 L 121.251 344.289 Z  M 117.443 344.289 C 117.443 344.44 117.321 344.563 117.17 344.563 L 114.437 344.563 C 114.286 344.563 114.163 344.44 114.163 344.289 L 114.163 343.606 C 114.163 343.455 114.286 343.333 114.437 343.333 L 117.17 343.333 C 117.321 343.333 117.443 343.455 117.443 343.606 L 117.443 344.289 Z  M 113.635 344.289 C 113.635 344.44 113.512 344.563 113.361 344.563 L 110.628 344.563 C 110.477 344.563 110.355 344.44 110.355 344.289 L 110.355 343.606 C 110.355 343.455 110.477 343.333 110.628 343.333 L 113.361 343.333 C 113.512 343.333 113.635 343.455 113.635 343.606 L 113.635 344.289 Z  M 109.826 344.289 C 109.826 344.44 109.704 344.563 109.553 344.563 L 106.82 344.563 C 106.669 344.563 106.547 344.44 106.547 344.289 L 106.547 343.606 C 106.547 343.455 106.669 343.333 106.82 343.333 L 109.553 343.333 C 109.704 343.333 109.826 343.455 109.826 343.606 L 109.826 344.289 Z  M 103.768 340.862 L 103.768 340.179 C 103.768 340.028 103.89 339.906 104.041 339.906 L 106.774 339.906 C 106.925 339.906 107.048 340.028 107.048 340.179 L 107.048 340.862 C 107.048 341.013 106.925 341.136 106.774 341.136 L 104.041 341.136 C 103.89 341.136 103.768 341.013 103.768 340.862 Z  M 91.644 340.862 C 91.644 341.013 91.521 341.136 91.371 341.136 L 88.637 341.136 C 88.486 341.136 88.364 341.013 88.364 340.862 L 88.364 340.179 C 88.364 340.028 88.486 339.906 88.637 339.906 L 91.371 339.906 C 91.521 339.906 91.644 340.028 91.644 340.179 L 91.644 340.862 Z  M 87.835 340.862 C 87.835 341.013 87.713 341.136 87.562 341.136 L 84.829 341.136 C 84.678 341.136 84.556 341.013 84.556 340.862 L 84.556 340.179 C 84.556 340.028 84.678 339.906 84.829 339.906 L 87.562 339.906 C 87.713 339.906 87.835 340.028 87.835 340.179 L 87.835 340.862 Z  M 84.027 340.862 C 84.027 341.013 83.905 341.136 83.754 341.136 L 81.021 341.136 C 80.87 341.136 80.747 341.013 80.747 340.862 L 80.747 340.179 C 80.747 340.028 80.87 339.906 81.021 339.906 L 83.754 339.906 C 83.905 339.906 84.027 340.028 84.027 340.179 L 84.027 340.862 Z  M 80.219 340.862 C 80.219 341.013 80.097 341.136 79.946 341.136 L 77.212 341.136 C 77.062 341.136 76.939 341.013 76.939 340.862 L 76.939 340.179 C 76.939 340.028 77.062 339.906 77.212 339.906 L 79.946 339.906 C 80.097 339.906 80.219 340.028 80.219 340.179 L 80.219 340.862 Z  M 76.411 340.862 C 76.411 341.013 76.288 341.136 76.137 341.136 L 73.404 341.136 C 73.253 341.136 73.131 341.013 73.131 340.862 L 73.131 340.179 C 73.131 340.028 73.253 339.906 73.404 339.906 L 76.137 339.906 C 76.288 339.906 76.411 340.028 76.411 340.179 L 76.411 340.862 Z  M 72.602 340.862 C 72.602 341.013 72.48 341.136 72.329 341.136 L 69.596 341.136 C 69.445 341.136 69.323 341.013 69.323 340.862 L 69.323 340.179 C 69.323 340.028 69.445 339.906 69.596 339.906 L 72.329 339.906 C 72.48 339.906 72.602 340.028 72.602 340.179 L 72.602 340.862 Z  M 68.937 338.105 L 59.628 338.105 L 59.628 338.137 C 59.628 338.359 59.447 338.54 59.224 338.54 L 52.072 338.54 C 51.849 338.54 51.668 338.359 51.668 338.137 L 51.668 338.105 L 49.998 338.105 C 49.775 338.105 49.594 337.924 49.594 337.701 L 49.594 337.203 C 49.594 336.981 49.775 336.8 49.998 336.8 L 51.668 336.8 L 51.668 336.757 C 51.668 336.534 51.849 336.354 52.072 336.354 L 59.224 336.354 C 59.447 336.354 59.628 336.534 59.628 336.757 L 59.628 336.8 L 68.937 336.8 C 69.159 336.8 69.34 336.981 69.34 337.203 L 69.34 337.701 C 69.34 337.924 69.159 338.105 68.937 338.105 Z  M 107.576 340.179 C 107.576 340.028 107.699 339.906 107.85 339.906 L 110.583 339.906 C 110.734 339.906 110.856 340.028 110.856 340.179 L 110.856 340.862 C 110.856 341.013 110.734 341.136 110.583 341.136 L 107.85 341.136 C 107.699 341.136 107.576 341.013 107.576 340.862 L 107.576 340.179 Z  M 108.078 333.866 C 108.078 333.643 108.259 333.463 108.481 333.463 L 113.616 333.463 C 113.839 333.463 114.02 333.643 114.02 333.866 L 114.02 334.072 C 114.02 334.295 113.839 334.476 113.616 334.476 L 108.481 334.476 C 108.259 334.476 108.078 334.295 108.078 334.072 L 108.078 333.866 Z  M 114.664 340.179 L 114.664 340.862 C 114.664 341.013 114.542 341.136 114.391 341.136 L 111.658 341.136 C 111.507 341.136 111.385 341.013 111.385 340.862 L 111.385 340.179 C 111.385 340.028 111.507 339.906 111.658 339.906 L 114.391 339.906 C 114.542 339.906 114.664 340.028 114.664 340.179 Z  M 114.358 333.9 C 114.358 333.677 114.539 333.497 114.761 333.497 L 116.249 333.497 C 116.471 333.497 116.652 333.677 116.652 333.9 L 116.652 334.106 C 116.652 334.329 116.471 334.509 116.249 334.509 L 114.761 334.509 C 114.539 334.509 114.358 334.329 114.358 334.106 L 114.358 333.9 Z  M 118.473 340.179 L 118.473 340.862 C 118.473 341.013 118.35 341.136 118.199 341.136 L 115.466 341.136 C 115.315 341.136 115.193 341.013 115.193 340.862 L 115.193 340.179 C 115.193 340.028 115.315 339.906 115.466 339.906 L 118.199 339.906 C 118.35 339.906 118.473 340.028 118.473 340.179 Z  M 122.281 340.179 L 122.281 340.862 C 122.281 341.013 122.159 341.136 122.008 341.136 L 119.275 341.136 C 119.124 341.136 119.001 341.013 119.001 340.862 L 119.001 340.179 C 119.001 340.028 119.124 339.906 119.275 339.906 L 122.008 339.906 C 122.159 339.906 122.281 340.028 122.281 340.179 Z  M 117.352 333.866 C 117.352 333.643 117.532 333.463 117.755 333.463 L 122.89 333.463 C 123.112 333.463 123.293 333.643 123.293 333.866 L 123.293 334.072 C 123.293 334.295 123.112 334.476 122.89 334.476 L 117.755 334.476 C 117.532 334.476 117.352 334.295 117.352 334.072 L 117.352 333.866 Z  M 123.632 333.9 C 123.632 333.677 123.812 333.497 124.035 333.497 L 125.522 333.497 C 125.745 333.497 125.925 333.677 125.925 333.9 L 125.925 334.106 C 125.925 334.329 125.745 334.509 125.522 334.509 L 124.035 334.509 C 123.812 334.509 123.632 334.329 123.632 334.106 L 123.632 333.9 Z  M 126.089 340.179 L 126.089 340.862 C 126.089 341.013 125.967 341.136 125.816 341.136 L 123.083 341.136 C 122.932 341.136 122.81 341.013 122.81 340.862 L 122.81 340.179 C 122.81 340.028 122.932 339.906 123.083 339.906 L 125.816 339.906 C 125.967 339.906 126.089 340.028 126.089 340.179 Z  M 135.898 333.866 C 135.898 333.643 136.079 333.463 136.301 333.463 L 141.436 333.463 C 141.659 333.463 141.84 333.643 141.84 333.866 L 141.84 334.072 C 141.84 334.295 141.659 334.476 141.436 334.476 L 136.301 334.476 C 136.079 334.476 135.898 334.295 135.898 334.072 L 135.898 333.866 Z  M 142.178 333.9 C 142.178 333.677 142.359 333.497 142.581 333.497 L 144.069 333.497 C 144.291 333.497 144.472 333.677 144.472 333.9 L 144.472 334.106 C 144.472 334.329 144.291 334.509 144.069 334.509 L 142.581 334.509 C 142.359 334.509 142.178 334.329 142.178 334.106 L 142.178 333.9 Z  M 148.885 333.085 C 150.809 334.489 153.171 335.327 155.737 335.327 L 185.181 335.327 C 187.746 335.327 190.109 334.489 192.032 333.085 L 192.882 333.935 C 190.826 335.746 188.136 336.853 185.181 336.853 L 155.737 336.853 C 152.782 336.853 150.091 335.746 148.035 333.935 L 148.885 333.085 Z  M 151.169 329.308 L 184.171 329.308 C 184.427 329.308 184.635 329.516 184.635 329.772 C 184.635 330.029 184.427 330.237 184.171 330.237 L 151.169 330.237 C 150.913 330.237 150.704 330.029 150.704 329.772 C 150.704 329.516 150.913 329.308 151.169 329.308 Z  M 262.758 343.678 L 257.651 343.678 L 257.651 328.129 C 257.651 327.092 256.568 326.281 255.232 326.281 L 247.974 326.281 C 246.638 326.281 245.364 327.092 245.12 328.129 L 242.624 338.741 C 227.242 335.334 204.451 333.065 200.152 333.065 L 195.692 333.065 L 194.389 333.065 C 191.958 331.995 189.203 331.064 186.32 330.32 L 184.869 320.891 C 184.687 319.706 183.591 318.726 182.414 318.69 L 177.854 318.55 L 177.854 313.782 C 177.854 313.337 177.493 312.976 177.048 312.976 C 176.603 312.976 176.242 313.337 176.242 313.782 L 176.242 318.501 L 173.789 318.426 L 173.789 315.798 C 173.789 315.353 173.428 314.991 172.982 314.991 C 172.537 314.991 172.176 315.353 172.176 315.798 L 172.176 318.377 L 170.832 318.336 L 170.832 315.126 C 170.832 314.681 170.471 314.319 170.026 314.319 C 169.58 314.319 169.22 314.681 169.219 315.126 L 169.219 318.287 L 156.431 317.896 L 156.431 313.025 C 156.431 312.833 156.275 312.676 156.082 312.676 C 155.89 312.676 155.734 312.833 155.734 313.025 L 155.734 317.875 L 154.415 317.835 L 154.415 312.723 C 154.415 312.53 154.259 312.374 154.067 312.374 C 153.874 312.374 153.718 312.53 153.718 312.723 L 153.718 317.813 L 151.772 317.754 C 150.426 317.713 149.329 318.7 149.329 319.971 L 149.329 329.697 C 147.272 330.508 146.115 331.673 146.002 333.065 L 144.988 333.065 L 52.177 333.065 C 45.574 333.065 40.221 338.418 40.221 345.021 C 40.221 351.624 45.574 356.977 52.177 356.977 L 200.152 356.977 C 205.028 356.977 233.686 354.058 248.347 349.872 L 250.771 356.065 C 250.833 356.224 251.051 356.351 251.258 356.351 L 264.285 356.351 C 264.493 356.351 264.661 356.224 264.661 356.065 L 264.661 346.599 C 266.675 346.338 269.482 345.823 269.482 345.23 C 269.482 344.373 263.615 343.678 262.758 343.678 Z " fill="rgb(80,80,80)"/></svg>